<svg width="192" height="192" viewBox="0 0 192 192" fill="none" xmlns="http://www.w3.org/2000/svg">
<path d="M25.4428 50.8236L12.7213 48.2354L15.0771 44.7059L23.5581 46.353L18.8465 39.5295L21.2023 36.2354L28.9765 47.5295L42.4048 50.353L40.0489 53.8824L30.6256 52.0001L35.8084 59.2942L33.4526 62.5883L25.4428 50.8236Z" fill="#FF0000"/>
<path d="M42.6406 47.2942C40.7559 47.0589 39.1069 45.8825 37.2222 44.0001L30.6259 36.9413C28.7412 35.0589 27.7989 33.1766 27.7989 31.2942C27.7989 29.4119 28.5056 27.7648 30.3903 25.8824C32.275 24.0001 34.1596 23.2942 35.8087 23.5295C37.4578 23.7648 39.3424 24.9413 41.2271 26.8236L47.8234 33.8824C49.7081 35.7648 50.6504 37.6472 50.886 39.5295C51.1216 41.4119 50.1793 43.0589 48.2946 44.9413C46.4099 46.8236 44.5253 47.5295 42.6406 47.2942ZM46.8811 40.4707C46.6455 39.7648 46.1743 39.0589 45.232 38.1177L37.2222 29.6472C36.2799 28.706 35.5731 28.2354 34.8664 28.0001C34.1596 27.7648 33.4529 28.0001 32.7461 28.706C32.0394 29.4119 31.8038 30.1177 31.8038 30.8236C32.0394 31.5295 32.5105 32.2354 33.2173 33.1766L41.2271 41.6472C42.1694 42.5883 42.8762 43.0589 43.5829 43.2942C44.2897 43.5295 44.9964 43.2942 45.7032 42.5883C46.6455 41.8825 46.8811 41.1766 46.8811 40.4707Z" fill="#FF0000"/>
<path d="M57.9534 24.2354C57.0111 25.1766 56.0688 25.6472 55.1264 26.1177C53.2418 27.0589 51.5927 27.5295 50.1792 27.2942C48.5301 27.0589 47.3522 26.1177 46.4099 24.2354L42.1694 16.706L46.1743 14.353L50.4148 21.8825C50.8859 22.8236 51.5927 23.2942 52.0639 23.5295C52.7706 23.7648 53.4773 23.5295 54.6553 22.8236C55.362 22.5883 55.8332 22.1177 56.5399 21.4119L50.8859 11.7648L54.8908 9.41187L67.3767 31.5295L63.3718 33.8825L57.9534 24.2354Z" fill="#FF0000"/>
<path d="M62.4296 6.35296L72.5597 3.05884L73.502 6.11766L67.848 8.00001L69.9683 15.0588L74.4443 13.6471L75.3867 16.7059L70.9106 18.1177L73.502 26.1177L79.3916 24.2353L80.3339 27.2941L70.2039 30.5882L62.4296 6.35296Z" fill="#FF0000"/>
<path d="M80.0981 1.17647L84.5742 0.941176L85.7521 22.8235L89.5215 22.5882L88.3435 0.705882L92.8196 0.470588L93.9975 22.3529L97.5313 22.1176L96.3534 0.235294L100.829 0L102.243 25.4118L81.5116 26.5882L80.0981 1.17647Z" fill="#FF0000"/>
<path d="M110.017 1.17651L114.493 2.11769L112.373 12.4706L113.551 12.7059C116.142 13.1765 118.027 14.1177 118.969 15.5295C119.912 16.9412 120.147 18.8236 119.676 21.4118C119.205 24 118.027 25.8824 116.614 26.5883C114.964 27.2942 113.08 27.5295 110.488 27.0589L105.07 25.8824L110.017 1.17651ZM110.96 24.2353C112.373 24.4706 113.315 24.4706 114.022 24C114.729 23.5295 115.2 22.5883 115.436 20.9412C115.671 19.5295 115.671 18.5883 115.2 17.6471C114.729 16.9412 114.022 16.2353 112.609 16L111.666 15.7647L110.017 24L110.96 24.2353Z" fill="#FF0000"/>
<path d="M129.099 25.8824L129.571 25.1765L133.34 27.2942C133.104 27.7648 132.869 28 132.869 28.2353C132.162 29.4118 131.926 30.1177 131.926 30.8236C131.926 31.5295 132.398 32 133.104 32.4706C133.811 32.9412 134.518 32.9412 135.225 32.4706C135.696 32 136.402 31.2942 137.109 30.1177C137.816 28.9412 138.052 28 138.052 27.0589C138.052 26.1177 137.345 25.4118 136.167 24.7059L135.225 24L136.638 21.4118C137.109 21.6471 137.345 21.8824 137.58 21.8824C138.758 22.5883 139.701 22.5883 140.643 22.353C141.35 22.1177 142.056 21.1765 142.763 20C143.234 19.0589 143.47 18.1177 143.47 17.4118C143.47 16.7059 142.999 16.2353 142.292 15.7647C141.585 15.2942 140.879 15.2942 140.172 15.5295C139.465 15.7647 138.994 16.4706 138.287 17.4118L137.816 18.353L134.282 16.4706L134.989 15.5295C136.167 13.6471 137.345 12.4706 138.994 12C140.643 11.5295 142.292 12 144.177 12.9412C146.061 14.1177 147.239 15.2942 147.71 16.9412C148.182 18.5883 147.946 20.2353 146.768 22.1177C146.061 23.2942 145.119 24.2353 144.177 24.9412C143.234 25.6471 142.056 25.6471 141.114 25.4118C142.528 27.2942 142.528 29.6471 140.879 32.2353C139.701 34.353 138.287 35.7647 136.638 36.2353C134.989 36.7059 133.34 36.7059 131.22 35.5295C127.45 33.4118 126.744 30.1177 129.099 25.8824Z" fill="#FF0000"/>
<path d="M158.547 23.5295L162.317 26.8237L149.124 48.9413L145.826 46.1178L148.888 41.1766L145.59 38.1178L140.879 41.8825L137.58 39.059L158.547 23.5295ZM150.538 38.5884L156.427 29.6472L147.946 36.4707L150.538 38.5884Z" fill="#FF0000"/>
<path d="M170.562 35.2942L173.153 39.0589L164.437 45.1765L164.908 45.8824L175.98 43.0589L178.572 46.8236L166.086 49.8824L158.311 61.8824L155.484 58.1177L162.552 47.7648L162.081 47.0589L152.657 53.8824L150.066 50.1177L170.562 35.2942Z" fill="#FF0000"/>
<path d="M183.519 56.7058L185.403 61.1764L163.965 75.7646L162.316 71.7646L167.264 68.4705L165.614 64.4705L159.96 65.8823L158.311 61.8823L183.519 56.7058ZM169.855 67.0587L179.043 61.1764L168.677 63.7646L169.855 67.0587Z" fill="#FF0000"/>
<path d="M171.033 75.2942L171.975 75.0589L172.682 79.2942C172.211 79.2942 171.975 79.5295 171.74 79.5295C170.562 79.7648 169.619 80.2354 169.148 80.4707C168.677 80.9413 168.441 81.6472 168.677 82.3531C168.913 83.2942 169.384 83.7648 169.855 84.0001C170.562 84.2354 171.504 84.2354 172.918 84.0001C174.331 83.7648 175.273 83.2942 175.745 82.5883C176.451 81.8825 176.451 80.9413 176.451 79.5295L176.216 78.3531L179.278 77.8825C179.278 78.3531 179.514 78.8236 179.514 79.0589C179.749 80.4707 180.456 81.1766 181.163 81.6472C181.87 82.1178 183.048 82.1178 184.225 81.8825C185.403 81.6472 186.11 81.4119 186.581 80.9413C187.052 80.4707 187.288 79.7648 187.052 78.8236C186.817 77.8825 186.581 77.4119 185.875 77.1766C185.168 76.9413 184.461 76.9413 183.283 76.9413L182.105 77.1766L181.634 72.9413L182.812 72.706C184.932 72.2354 186.581 72.4707 187.995 73.6472C189.408 74.8236 190.351 76.2354 190.586 78.1178C191.057 80.2354 190.822 81.8825 189.879 83.2942C188.937 84.706 187.524 85.6472 185.403 85.8825C183.99 86.1178 182.812 86.1178 181.634 85.6472C180.456 85.1766 179.749 84.4707 179.278 83.5295C178.807 85.8825 177.158 87.2942 173.86 88.0001C171.504 88.4707 169.619 88.2354 167.97 87.5295C166.321 86.8236 165.379 85.1766 165.143 83.0589C164.201 78.8236 166.321 76.2354 171.033 75.2942Z" fill="#FF0000"/>
<path d="M192 95.7647V100.706L166.557 105.176V100.941L172.446 100V95.5294L166.557 94.353V90.1177L192 95.7647ZM175.509 99.7647L186.11 98.353L175.509 96.4706V99.7647Z" fill="#FF0000"/>
<path d="M187.053 113.176L187.995 109.176L191.293 109.882L188.702 122.353L185.404 121.647L186.111 117.882L164.672 113.412L165.615 108.941L187.053 113.176Z" fill="#FF0000"/>
<path d="M186.581 128.471L184.697 132.706L174.802 128.471L174.567 129.412C173.624 131.765 172.211 133.412 170.797 134.118C169.148 134.824 167.264 134.588 164.908 133.647C162.316 132.471 160.903 131.294 160.432 129.647C159.961 128 160.196 125.882 161.374 123.529L163.494 118.353L186.581 128.471ZM163.965 124.706C163.494 125.882 163.259 126.824 163.73 127.765C163.965 128.471 164.908 129.177 166.321 129.882C167.735 130.353 168.677 130.588 169.619 130.353C170.562 130.118 171.269 129.412 171.74 128L171.975 127.294L164.201 124L163.965 124.706Z" fill="#FF0000"/>
<path d="M159.018 136.471L156.662 140L153.364 137.647L155.72 134.118L159.018 136.471ZM164.201 140.471C164.437 142.588 164.672 144.471 165.379 146.118C166.086 147.765 167.028 148.941 168.206 149.882C168.913 150.353 169.619 150.588 170.326 150.588C171.033 150.588 171.504 150.118 171.975 149.647C172.446 149.176 172.446 148.471 172.446 148C172.446 147.529 171.975 147.059 171.504 146.588C171.033 146.353 170.562 146.118 170.091 145.882L171.74 142.118C172.682 142.353 173.389 142.824 174.096 143.294C175.509 144.235 176.451 145.647 176.687 147.059C176.923 148.471 176.451 150.118 175.273 151.765C174.096 153.412 172.682 154.353 171.269 154.588C169.855 154.824 168.206 154.353 166.557 153.176C164.908 152 163.966 150.588 163.259 148.941C162.552 147.294 162.081 145.177 162.081 142.824L158.547 141.176L160.667 138.118L164.201 140.471Z" fill="#FF0000"/>
<path d="M143.234 180L138.994 181.882L134.518 172.235L129.806 174.353L134.282 184L130.042 185.882L119.44 162.824L123.681 160.941L128.628 171.294L133.34 169.176L128.393 158.824L132.633 156.941L143.234 180Z" fill="#FF0000"/>
<path d="M118.262 189.412L113.315 190.353L103.185 166.588L107.426 165.647L109.546 171.059L113.786 170.118L113.551 164.235L117.791 163.294L118.262 189.412ZM110.724 174.118L114.493 184.235L114.022 173.412L110.724 174.118Z" fill="#FF0000"/>
<path d="M101.536 192L86.9299 191.765L87.4011 166.353H91.8772L91.406 188.471H96.8244L97.2956 166.353H101.772L101.536 192Z" fill="#FF0000"/>
<path d="M78.449 190.588L74.6797 189.647L78.6846 174.118L67.8478 187.765L64.7852 187.059L71.146 162.588L74.9153 163.529L70.6748 179.294L81.5116 165.412L84.3386 166.118L78.449 190.588Z" fill="#FF0000"/>
<path d="M55.833 183.765L52.0636 181.412L63.3716 162.588L60.0734 160.706L48.7655 179.529L44.9961 177.177L56.3041 158.353L53.2415 156.471L41.9336 175.294L38.1642 172.941L51.1213 151.294L69.0256 161.882L55.833 183.765Z" fill="#FF0000"/>
<path d="M31.0969 166.824L28.5055 164L40.2846 153.177L23.7938 159.059L21.6736 156.706L40.2846 139.294L42.876 142.118L31.0969 153.177L47.8233 147.059L49.9435 149.177L31.0969 166.824Z" fill="#FF0000"/>
<path d="M11.308 141.412L9.4233 137.176L19.0822 132.941L16.962 128.235L7.30306 132.471L5.4184 128.235L28.7411 117.882L30.6258 122.353L20.0245 127.059L22.1448 131.765L32.746 127.059L34.6307 131.294L11.308 141.412Z" fill="#FF0000"/>
<path d="M2.35591 116.471L1.41357 111.529L25.443 101.882L26.1498 106.118L20.7314 108.235L21.4381 112.471H27.3277L28.0344 116.706L2.35591 116.471ZM17.9044 109.176L7.77431 112.941L18.6111 112.706L17.9044 109.176Z" fill="#FF0000"/>
<path d="M-6.10352e-05 98.8236L0.235522 94.1177L17.9042 91.5294L0.471105 86.8236L0.706687 82.1177L26.1496 83.0588L25.9141 86.5883L8.24534 85.8824L25.6785 90.5883L25.4429 93.4118L7.53859 96L25.2073 97.4118L24.9717 100.941L-6.10352e-05 98.8236Z" fill="#FF0000"/>
<rect x="71.8987" y="79.9407" width="48.2022" height="32.1188" fill="#FF0000"/>
<path d="M71.8986 84.8979L95.9997 100.649L120.101 84.8979" stroke="black" stroke-width="2"/>
</svg>
