<svg width="193" height="219" viewBox="0 0 193 219" fill="none" xmlns="http://www.w3.org/2000/svg">
<path d="M173.901 21.0618V160.075L77.962 208.519V70.559L173.901 21.0618Z" fill="#FF0000"/>
<path d="M17.8685 21.0618V160.075L95.8852 200.094V61.0808L17.8685 21.0618Z" fill="#FF0000"/>
<path d="M35.7912 30.5408V169.554L17.8685 177.979V40.019L35.7912 30.5408Z" fill="black" stroke="#FF0000" stroke-width="2" stroke-linejoin="bevel"/>
<path d="M95.8851 0L17.8685 40.019L95.8851 78.9849L173.902 38.9659L95.8851 0Z" fill="#FF0000"/>
<path d="M35.7911 142.948L17.868 152.406L77.6766 183.525L95.885 173.489L35.7911 142.948Z" fill="black" stroke="#FF0000" stroke-width="2" stroke-linejoin="bevel"/>
<path fill-rule="evenodd" clip-rule="evenodd" d="M191.824 30.5382L95.8845 78.9823V78.9867L95.8845 78.9867V139.013V165.341V218L113.807 208.522V156.248L162.304 131.641V105.313L113.807 129.919V96.0639L191.824 55.8134V30.5382Z" fill="black"/>
<path d="M95.8845 78.9823L95.4337 78.0897L94.8845 78.9823H95.8845ZM191.824 30.5382H192.824L191.373 29.6456L191.824 30.5382ZM95.8845 78.9867L96.271 79.9089L96.8845 78.9867H95.8845ZM95.8845 78.9867L95.4979 78.0644L94.8845 78.9867H95.8845ZM95.8845 218H94.8845L96.3519 218.884L95.8845 218ZM113.807 208.522L114.275 209.406L114.807 208.522H113.807ZM113.807 156.248L113.355 155.356L112.807 156.248H113.807ZM162.304 131.641L162.757 132.533L163.304 131.641H162.304ZM162.304 105.313H163.304L161.852 104.421L162.304 105.313ZM113.807 129.919H112.807L114.26 130.811L113.807 129.919ZM113.807 96.0639L113.349 95.1752L112.807 96.0639H113.807ZM191.824 55.8134L192.282 56.7021L192.824 55.8134H191.824ZM96.3352 79.875L192.275 31.4309L191.373 29.6456L95.4337 78.0897L96.3352 79.875ZM96.8845 78.9867V78.9823H94.8845V78.9867H96.8845ZM96.271 79.9089L96.271 79.9089L95.4979 78.0644L95.4979 78.0644L96.271 79.9089ZM96.8845 139.013V78.9867H94.8845V139.013H96.8845ZM94.8845 139.013V165.341H96.8845V139.013H94.8845ZM96.8845 218V165.341H94.8845V218H96.8845ZM113.34 207.638L95.417 217.116L96.3519 218.884L114.275 209.406L113.34 207.638ZM112.807 156.248V208.522H114.807V156.248H112.807ZM114.26 157.139L162.757 132.533L161.852 130.749L113.355 155.356L114.26 157.139ZM163.304 131.641V105.313H161.304V131.641H163.304ZM161.852 104.421L113.355 129.027L114.26 130.811L162.757 106.205L161.852 104.421ZM112.807 96.0639V129.919H114.807V96.0639H112.807ZM191.365 54.9247L113.349 95.1752L114.266 96.9526L192.282 56.7021L191.365 54.9247ZM190.824 30.5382V55.8134H192.824V30.5382H190.824Z" fill="#FF0000"/>
<path d="M144.381 95.8351L162.304 105.313L113.807 129.95V111.632L144.381 95.8351Z" fill="black" stroke="#FF0000" stroke-linejoin="bevel"/>
<path fill-rule="evenodd" clip-rule="evenodd" d="M1.00001 29.8983L95.8824 79.3382V104.613L17.8685 64.8289V151.988L95.8824 192.51V217.785L1 169.554V169.554V143.226V30.5408L1.00001 30.5408V29.8983Z" fill="black"/>
<path d="M95.8824 79.3382H96.8824L96.3445 78.4513L95.8824 79.3382ZM1.00001 29.8983L1.4621 29.0115L6.25849e-06 29.8983H1.00001ZM95.8824 104.613L95.4281 105.504L96.8824 104.613H95.8824ZM17.8685 64.8289L18.3228 63.9381L16.8685 64.8289H17.8685ZM17.8685 151.988H16.8685L17.4075 152.875L17.8685 151.988ZM95.8824 192.51H96.8824L96.3434 191.623L95.8824 192.51ZM95.8824 217.785L95.4293 218.677L96.8824 217.785H95.8824ZM1 169.554H0L0.546861 170.446L1 169.554ZM1 30.5408L1.48856 29.6683L0 30.5408H1ZM1.00001 30.5408L0.511446 31.4134L2.00001 30.5408H1.00001ZM96.3445 78.4513L1.4621 29.0115L0.537911 30.7852L95.4203 80.225L96.3445 78.4513ZM96.8824 104.613V79.3382H94.8824V104.613H96.8824ZM17.4142 65.7198L95.4281 105.504L96.3367 103.722L18.3228 63.9381L17.4142 65.7198ZM18.8685 151.988V64.8289H16.8685V151.988H18.8685ZM17.4075 152.875L95.4215 193.397L96.3434 191.623L18.3294 151.1L17.4075 152.875ZM94.8824 192.51V217.785H96.8824V192.51H94.8824ZM96.3355 216.894L1.45314 168.663L0.546861 170.446L95.4293 218.677L96.3355 216.894ZM2 169.554V169.554H0V169.554H2ZM2 169.554V143.226H0V169.554H2ZM0 30.5408V143.226H2V30.5408H0ZM1.48857 29.6683L1.48856 29.6683L0.51144 31.4134L0.511446 31.4134L1.48857 29.6683ZM6.25849e-06 29.8983V30.5408H2.00001V29.8983H6.25849e-06Z" fill="#FF0000"/>
<path d="M17.8685 21.0618L1 30.54L94.4855 78.7992L112.81 69.4245L17.8685 21.0618Z" fill="black" stroke="#FF0000" stroke-width="2" stroke-linejoin="bevel"/>
<path d="M77.962 69.6218V208.522L95.8847 218V78.9867L77.962 69.6218Z" fill="black" stroke="#FF0000" stroke-width="2" stroke-linejoin="bevel"/>
<path d="M173.903 21.0618L191.825 30.54L95.886 78.9841L77.9632 70.559L173.903 21.0618Z" fill="black" stroke="#FF0000" stroke-width="2" stroke-linejoin="bevel"/>
</svg>
